name random_motion_10s.mot
datacolumns 16
datarows 35
range 2.50000000 2.53400000
endheader
time	lumbar_extension	lumbar_bending	lumbar_rotation	ankle_angle	subtalar_angle	mtp_angle	knee_flexion	knee_adduction	knee_rotation	knee_tx	knee_ty	knee_tz	hip_flexion	hip_adduction	hip_rotation	
          2.50000000	        -20.84122756	          9.41088783	         -3.00798452	         -7.16340516	         -3.51745101	          3.34704714	        -44.95125146	          2.45303023	          3.35981836	          0.00215071	          0.03021803	          0.00774773	          8.30507599	          0.73851852	        -10.98054441	
          2.50100000	        -22.37189392	          5.19876892	         -2.39307363	         -3.38177879	         -3.63477666	        -20.15733238	        -12.90888879	         -3.15799414	         -1.95937336	         -0.00322367	          0.04095368	          0.00805983	          0.96463630	         -1.51472358	        -15.34245423	
          2.50200000	        -24.51949260	         10.34207505	         -2.80430300	          5.20538807	         -3.57594879	        -20.93723501	        -36.19230561	         -5.19052669	         -3.63108928	         -0.00881185	          0.02876307	          0.00824011	        -25.87936689	          6.97493639	        -10.34946319	
          2.50300000	        -23.37381716	         11.34970859	         -4.32077803	         -4.89002608	        -14.56398486	         -5.26599070	        -45.28559522	          0.37637890	         -2.12636005	         -0.00514724	          0.04479475	         -0.00149938	         23.18859149	          3.35671618	         -9.90707009	
          2.50400000	        -21.84149211	          5.28178196	         -4.33366856	          2.47134258	         -3.75990553	        -13.14322073	        -20.52341925	         -3.69296877	         -3.83915625	         -0.00579279	          0.02609905	          0.00420209	        -29.33178211	         -2.05110396	         -8.81675953	
          2.50500000	        -23.27556864	          9.68094795	         -3.43809873	         -4.83918766	        -12.21763119	          6.10602313	        -13.75651502	         -2.98722405	          1.80486250	         -0.00092739	          0.03039770	         -0.00684368	         14.48405706	          5.30870490	         -2.97155763	
          2.50600000	        -23.86978663	          4.52777297	         -2.60126158	          5.44712302	         -7.88162272	        -11.90660570	        -24.17742203	         -5.93136901	         -1.93691359	         -0.00533319	          0.03741169	          0.00908415	        -10.78709142	          6.08514909	        -15.80842683	
          2.50700000	        -24.12492579	          8.16692198	         -3.03834234	         -0.34488616	        -11.60257224	        -20.95177820	        -40.09708671	          1.62461744	          1.19630560	          0.00192761	          0.02916798	          0.00684504	         -7.04289750	          3.26401589	        -11.72562139	
          2.50800000	        -20.84552890	          3.66570380	         -2.01561322	         -4.34031937	        -12.64907492	          0.50710347	        -58.64324680	          0.75379745	          0.88920100	          0.00344977	          0.03023539	         -0.00887251	         22.71836018	          6.76794687	        -10.32002395	
          2.50900000	        -27.38391778	          3.03914104	         -5.49145216	        -13.19248620	         -5.95073134	        -19.15948712	        -15.92102742	          0.23381735	         -1.10958202	          0.00191428	          0.03323301	         -0.00143732	          1.79318296	          8.29554452	         -2.61268086	
          2.51000000	        -25.07798538	          9.29793709	         -3.70849956	          6.56973682	         -8.13554910	        -11.55969327	        -18.34800687	          4.82297893	          2.76791288	          0.00327369	          0.04261058	          0.00093692	        -21.02925749	          8.72553406	        -14.09056534	
          2.51100000	        -21.03042828	          3.05148712	         -3.62743223	          7.76696154	         -7.64467776	          1.97787353	         -4.64998635	          2.75192114	         -5.11363571	         -0.00363677	          0.02927975	         -0.00364456	          8.93189982	          9.68834946	        -10.27434338	
          2.51200000	        -21.37016541	          9.26336773	         -4.66898466	          5.77076054	        -14.90957128	         -2.30722035	        -40.75705854	          4.18520674	         -0.61759634	         -0.00701293	          0.04228048	         -0.00934470	         14.95626958	          7.78318134	         -8.82255459	
          2.51300000	        -20.06213460	          6.90539660	         -2.00292351	         -6.24583098	        -11.37642416	        -14.55965278	        -21.48000139	         -4.51077238	          3.45110421	         -0.00684635	          0.03979655	          0.00670695	        -14.70219239	          8.42664103	         -2.41961479	
          2.51400000	        -23.46638690	          0.21489044	         -5.03954136	          0.30317143	         -8.82771955	         -1.55694568	        -27.21060436	          3.20175685	          0.48308470	         -0.00102173	          0.04417159	         -0.00941424	         10.62202053	          0.27191717	         -4.86134126	
          2.51500000	        -23.72594432	          1.50017622	         -3.58768766	         -4.22799058	        -12.39240613	          2.93514885	        -19.36611391	         -0.73943209	         -5.32496049	         -0.00772488	          0.02605671	          0.00602240	        -18.88176363	          0.29216909	        -15.19178022	
          2.51600000	        -23.45953948	          2.45426794	         -5.19882895	         -7.44819007	        -14.19783094	        -21.56519166	         -3.24266419	          2.61066532	          3.11692834	          0.00086504	          0.02860586	          0.00514864	          3.16170797	         -1.95266856	        -10.09548965	
          2.51700000	        -26.13170375	          8.33398981	         -5.86678852	         -1.64168730	        -15.82206487	        -18.82552911	        -16.16520458	          2.08398616	          1.61341440	         -0.00334933	          0.04371776	         -0.00211342	        -15.24782994	          2.98660834	         -5.01982173	
          2.51800000	        -21.06882508	          1.22009851	         -4.99542785	         -6.96966445	        -11.16500009	         -5.09466876	        -41.18077189	         -0.79904252	         -5.88916319	         -0.00038417	          0.03871656	          0.00606947	        -16.13483776	         -1.18679768	        -13.87373996	
          2.51900000	        -21.22047934	          8.52226628	         -5.75422788	          3.64013245	         -9.51157287	        -20.85877697	        -25.01237969	          2.54304462	         -0.71301193	          0.00140681	          0.04209354	         -0.00705520	        -16.03109585	          0.14983066	         -4.36541395	
          2.52000000	        -27.63034898	          3.46178105	         -4.91585990	        -12.13028316	         -4.21792982	          2.10626586	        -32.13433769	         -3.34448653	         -3.01297653	         -0.00174009	          0.02709780	         -0.00485732	        -21.14278895	          1.78667413	        -13.85320484	
          2.52100000	        -22.11002965	          0.23254305	         -2.57744625	         -9.02687430	         -3.08297113	          0.15930348	        -47.02842551	         -2.45025055	          2.97443033	         -0.00394056	          0.04328659	          0.00881839	          5.12766875	          6.88015303	        -15.24373770	
          2.52200000	        -21.40679353	          7.28511595	         -2.26188198	         -8.37010924	         -7.86922960	          2.72127920	        -34.23536766	         -3.65634934	          3.75584569	         -0.00097084	          0.03559337	          0.00553493	        -23.75539874	          4.16916902	        -15.00979745	
          2.52300000	        -24.02951347	          0.45877863	         -2.06130715	         -8.98394582	         -3.29821282	         -0.86858377	        -55.04463231	          1.31626904	          2.62573381	         -0.00990490	          0.04414399	         -0.00514455	         -1.84897150	          6.64437014	        -14.15007436	
          2.52400000	        -21.65746283	          8.57465189	         -3.26387318	         -8.89919746	         -3.57935069	         -4.08913632	         -6.39402324	         -3.55476501	         -3.33656528	         -0.00086084	          0.03283671	         -0.00645066	         21.71307126	          9.51278750	         -7.97567063	
          2.52500000	        -21.68232197	          0.05679950	         -3.66384353	          2.20701458	        -13.87184908	        -22.69848915	        -39.67687731	          4.74184347	          0.84383702	          0.00394820	          0.03669418	          0.00375543	          1.41985961	          4.64058567	        -11.27735998	
          2.52600000	        -25.93821228	          5.63236289	         -4.55656643	         -5.20006570	        -13.14959680	        -16.76048120	        -55.93811972	         -2.64942972	         -0.62426216	         -0.00859379	          0.03436795	          0.00207803	        -14.28898559	          4.65362108	         -2.84048045	
          2.52700000	        -27.18360151	          1.60448333	         -5.32113195	        -12.49182377	         -4.04909110	          6.12556464	        -32.02637895	          1.95393471	         -2.08570455	         -0.00565606	          0.03678100	          0.00126193	        -10.39559663	          3.40926489	         -7.11265821	
          2.52800000	        -24.52982966	          4.24208603	         -4.06871362	          4.30876614	        -14.41318545	          1.18035047	        -42.50865707	         -1.26474651	          1.02180624	         -0.00278059	          0.02570894	          0.00809384	        -29.49530686	          4.02958065	        -15.77676017	
          2.52900000	        -27.83490455	          3.78105351	         -5.96243211	         -9.38206747	         -6.25035170	         -3.51676760	        -25.62230624	         -1.38353932	         -5.34162729	         -0.00891345	          0.02649713	          0.00215222	        -23.82935814	          9.88711911	        -12.86660594	
          2.53000000	        -23.04110407	          4.26928293	         -3.04351762	        -14.29521993	         -3.09602512	         -1.48642087	        -47.09372350	          0.98372417	         -4.80375209	         -0.00387572	          0.03584656	          0.00645167	         -6.98725478	          0.96046114	        -14.90496984	
          2.53100000	        -27.03994727	         10.48960349	         -3.71028492	         -1.08314062	         -5.56046863	          0.48711330	        -24.75925864	         -4.52851936	         -5.30103358	         -0.00925646	          0.03366564	          0.00338983	         18.89306660	         -1.01979222	         -7.75054295	
          2.53200000	        -23.18102088	         11.46909436	         -3.04061385	          7.64219819	        -10.48449327	         -8.74093161	        -28.93880544	          4.95257677	         -2.28526205	         -0.00984378	          0.04177171	          0.00762248	         15.48517694	          4.05427788	         -7.36588000	
          2.53300000	        -27.39108330	          5.53658130	         -2.90215234	          2.84685434	         -8.61846110	        -17.30623273	        -27.80242054	          1.90581635	          3.10691876	         -0.00352793	          0.02588625	         -0.00195289	        -19.35363112	         -0.92326521	        -13.89127083	
          2.53400000	        -23.44513661	         11.07364992	         -4.99798905	          9.45549524	         -5.38729598	         -7.66450571	         -4.56052286	          0.35439346	          1.14887417	          0.00432210	          0.03104147	          0.00362353	          8.23713276	         -1.75206167	         -2.25878465	
